<?xml version="1.0" encoding="utf-8"?>
<!-- Generator: Adobe Illustrator 19.1.0, SVG Export Plug-In . SVG Version: 6.00 Build 0)  -->
<svg version="1.1" baseProfile="tiny" id="Слой_1"
	 xmlns="http://www.w3.org/2000/svg" xmlns:xlink="http://www.w3.org/1999/xlink" x="0px" y="0px" viewBox="0 0 16 16"
	 xml:space="preserve">
<path d="M7.1,10.9c0,0.4-0.1,0.7-0.2,1.1c-0.1,0.4-0.3,0.7-0.5,1c-0.2,0.3-0.4,0.6-0.7,0.8c-0.3,0.3-0.5,0.5-0.8,0.7l0.3,0.2
	c2.2-0.4,3.9-1.3,5.4-2.9c1.4-1.6,2.2-3.3,2.2-5.1c0-1.5-0.4-2.7-1.3-3.6c-0.9-0.9-2-1.4-3.3-1.4c-0.6,0-1.2,0.1-1.8,0.4
	c-0.6,0.3-1.1,0.6-1.5,1c-0.4,0.4-0.8,1-1,1.6C3.4,5.1,3.3,5.7,3.3,6.4C3.3,8.6,4.6,10.1,7.1,10.9L7.1,10.9z"/>
</svg>
