<?xml version="1.0" encoding="utf-8"?>
<!-- Generator: Adobe Illustrator 19.1.0, SVG Export Plug-In . SVG Version: 6.00 Build 0)  -->
<svg version="1.1" id="Слой_1" xmlns="http://www.w3.org/2000/svg" xmlns:xlink="http://www.w3.org/1999/xlink" x="0px" y="0px"
	 viewBox="0 0 16 16" style="enable-background:new 0 0 16 16;" xml:space="preserve">
<style type="text/css">
	.st0{fill:#010202;}
</style>
<path class="st0" d="M12.9,11c-0.8,0-1.5,0.3-2,0.8L6,8.8C6.1,8.5,6.1,8.3,6.1,8c0-0.3-0.1-0.5-0.1-0.8l4.9-3c0.5,0.4,1.2,0.7,2,0.7
	C14.6,5,16,3.6,16,1.9c0-1.7-1.4-3.1-3.1-3.1c-1.7,0-3.1,1.4-3.1,3.1c0,0.2,0,0.5,0.1,0.7L5,5.7c-0.5-0.4-1.3-0.8-2-0.8
	C1.4,4.9,0,6.3,0,8c0,1.7,1.4,3,3.1,3c0.7,0,1.5-0.3,2-0.7l4.9,3c-0.1,0.2-0.1,0.5-0.1,0.7c0,1.7,1.4,3.1,3.1,3.1s3.1-1.4,3.1-3.1
	C16,12.4,14.6,11,12.9,11z"/>
</svg>
