<?xml version="1.0" encoding="utf-8"?>
<!-- Generator: Adobe Illustrator 19.1.0, SVG Export Plug-In . SVG Version: 6.00 Build 0)  -->
<svg version="1.1" baseProfile="tiny" id="Слой_1"
	 xmlns="http://www.w3.org/2000/svg" xmlns:xlink="http://www.w3.org/1999/xlink" x="0px" y="0px" viewBox="0 0 16 16"
	 xml:space="preserve">
<path d="M16.5,2.3c-0.6,0.3-1.3,0.5-2,0.6c0.7-0.5,1.3-1.2,1.5-2.1c-0.7,0.4-1.4,0.7-2.2,0.9c-0.6-0.7-1.5-1.2-2.5-1.2
	c-1.9,0-3.5,1.7-3.5,3.8c0,0.3,0,0.6,0.1,0.9C5,5,2.4,3.5,0.7,1.2C0.4,1.8,0.2,2.4,0.2,3.1c0,1.3,0.6,2.5,1.6,3.2
	c-0.6,0-1.1-0.2-1.6-0.5c0,0,0,0,0,0c0,1.8,1.2,3.4,2.8,3.7C2.7,9.6,2.4,9.7,2.1,9.7c-0.2,0-0.4,0-0.7-0.1c0.4,1.5,1.7,2.6,3.3,2.6
	c-1.2,1-2.7,1.6-4.3,1.6c-0.3,0-0.6,0-0.8-0.1c1.5,1.1,3.4,1.7,5.3,1.7c6.4,0,9.9-5.8,9.9-10.8c0-0.2,0-0.3,0-0.5
	C15.4,3.7,16,3,16.5,2.3z"/>
</svg>
