<?xml version="1.0" encoding="utf-8"?>
<!-- Generator: Adobe Illustrator 19.1.0, SVG Export Plug-In . SVG Version: 6.00 Build 0)  -->
<svg version="1.1" baseProfile="tiny" id="Слой_1"
	 xmlns="http://www.w3.org/2000/svg" xmlns:xlink="http://www.w3.org/1999/xlink" x="0px" y="0px" viewBox="0 0 16 16"
	 xml:space="preserve">
<path d="M13.2,14C13.2,14,13.1,14,13.2,14c-1-0.2-1.6-0.9-2.1-1.5c-0.3-0.4-0.8-1.2-1.3-1.1C9,11.4,9.4,12.9,9,13.5
	C8.8,14,7.7,14,6.9,13.9c-2.4-0.3-3.6-1.7-4.7-3.3C1,8.9,0.1,7.2-0.7,5.3C-1,4.7-1.3,4-1.3,3.3C-1,2.9-0.3,3,0.3,3
	c0.5,0,1.4-0.1,1.8,0.1C2.4,3.2,2.6,4,2.8,4.4c0.4,1,0.8,1.8,1.4,2.7c0.2,0.4,0.6,1.1,1,1C5.6,8,5.6,6.9,5.6,6.2
	c0-0.8,0-1.8-0.2-2.2C5.2,3.5,4.9,3.5,4.5,3.3c0.3-0.7,1.1-0.7,2.1-0.7c0.8,0,2-0.1,2.3,0.5c0.3,0.6,0.1,1.8,0.1,2.6
	c0,1-0.2,1.9,0.4,2.4c0.5-0.1,0.7-0.5,1-0.9c0.6-0.8,0.9-1.6,1.4-2.7C12,4,12.2,3.2,12.6,3.1c0.5-0.2,1.3,0,2.1,0
	c0.6,0,1.7-0.2,1.9,0.3c0.2,0.4-0.3,1.4-0.5,1.6c-0.6,1-1.1,1.7-1.7,2.6c-0.2,0.4-0.7,0.9-0.7,1.5c0,0.4,0.4,0.8,0.7,1.1
	c0.7,0.7,1.1,1.2,1.6,1.9c0.2,0.3,0.6,0.9,0.6,1.3C16.4,14.4,14,13.7,13.2,14z"/>
</svg>
