<?xml version="1.0" encoding="utf-8"?>
<!-- Generator: Adobe Illustrator 19.1.0, SVG Export Plug-In . SVG Version: 6.00 Build 0)  -->
<svg version="1.1" baseProfile="tiny" id="Слой_1"
	 xmlns="http://www.w3.org/2000/svg" xmlns:xlink="http://www.w3.org/1999/xlink" x="0px" y="0px" viewBox="0 0 16 16"
	 xml:space="preserve">
<g>
	<path d="M8.9,1C8.6,0.8,8,0.9,7.8,1.1C7.3,1.6,4,5.2,4,5.2c0,0-3.2,0-3.7,0c-0.2,0-0.5,0-0.8,0.2c-0.2,0.2-0.3,0.4-0.3,0.8
		c0,0,0,3.5,0,3.5c0,0.2,0.1,0.5,0.2,0.6c0.2,0.2,0.5,0.3,0.8,0.3c0.3,0,3.7,0,3.7,0s3.6,4,3.8,4.2c0.2,0.2,0.9,0.2,1.1,0
		c0.2-0.2,0.4-0.3,0.5-0.9c0,0,0-11.1,0-12.1C9.4,1.4,9.2,1.1,8.9,1z M13.9,7.9c0-0.5-0.2-1.1-0.4-1.6c-0.3-0.8-0.9-1.4-1.2-1.5
		c-0.3-0.1-0.5,0-0.7,0.1c-0.3,0.3-0.3,0.7-0.1,1c0.5,0.6,0.8,1,0.9,2c0,0.4,0,0.7-0.2,1.2c-0.1,0.3-0.3,0.6-0.5,0.8
		c-0.1,0.1-0.2,0.2-0.3,0.4c-0.2,0.4-0.1,0.6-0.1,0.7c0,0.1,0,0.2,0.3,0.3c0.3,0.2,0.6,0.1,0.8-0.1c0.3-0.2,1-1.2,1.2-2.2
		C13.9,8.6,14,8.2,13.9,7.9z M16.6,6.4c0,0-0.3-0.9-0.7-1.6c-0.4-0.7-0.8-1.2-1.2-1.3c-0.3-0.1-0.5,0-0.7,0.1
		c-0.3,0.3-0.3,0.7-0.1,1c1.3,1.4,1.4,2.6,1.4,3.5c0,1-0.3,1.8-0.5,2.2c-0.2,0.3-0.4,0.7-0.6,0.9c-0.1,0.1-0.2,0.2-0.3,0.4
		c-0.2,0.4-0.1,0.6-0.1,0.7s0,0.2,0.3,0.3c0.3,0.2,0.6,0.1,0.8-0.1c0.3-0.2,1-1.1,1.4-2.1c0.2-0.5,0.4-1.3,0.4-2.2
		C16.8,7.4,16.6,6.4,16.6,6.4z"/>
</g>
</svg>
