<?xml version="1.0" encoding="utf-8"?>
<!-- Generator: Adobe Illustrator 19.1.0, SVG Export Plug-In . SVG Version: 6.00 Build 0)  -->
<svg version="1.1" baseProfile="tiny" id="Слой_1"
	 xmlns="http://www.w3.org/2000/svg" xmlns:xlink="http://www.w3.org/1999/xlink" x="0px" y="0px" viewBox="0 0 600 600"
	 xml:space="preserve">
<path d="M572.4,524.8c-2.8-3.9-10-15.4-13-19.7c-3.5-5.1-12.5-19.2-14-22c-1.5-2.8-8.1-12-10-15s-9.2-15-10-15c-0.8,0-2.6,4-5,8
	c-2.4,4-9.4,16.6-12,21c-2.6,4.4-15.4,25.5-20,33c-2.5,4.1-4.5,7.5-5.9,9.8c-0.6,0-1.2,0-2-0.1c-3.1-0.3-4.2-0.7-8,0
	c-3.8,0.7-6.1-0.9-8-1.1c-1.1-0.1-2.4,0.2-3.2,0.1c-2.9,0.2-12.2,0.2-17,0c0.1-4.5,0.1-14.1-0.1-18.7c-0.2-8.9-0.2-36.8,0-41
	s0.2-10.4,0-12s-2,0-2,0c-1.4,0.9-1.7,1.1-4,3c-2.3,1.9-11.1,7.9-18,13c-6.9,5.1-16.8,12.2-19,14c-2.2,1.8-2.5,0.1-4-1
	c-1.5-1.1-9.1-6.9-13-10c-3.9-3.1-15.1-10.8-18-13c-2.9-2.2-5.6-5.9-7-6c-1.4-0.1-0.9,2.6-1,5s-0.1,19.6,0,25s0,32.2,0,37
	c0,1.8,0,3.9,0.1,5.7c-1.5,0-3,0-4,0c-3.4,0.1-11.9-0.3-13.6,0c-1.7,0.3-1.3-3.7-1.1-9.1c0.1-5.4-0.3-18.1,0-27.3
	c0.3-9.3-0.3-22.9,0-27.3c0.3-4.4,0.4-16.7,0-21.6c-0.4-5.1-1.1-17.7-1.1-20.5c0-3.8,0.7-5.8,1.1-6.8c0.4-1,5.7,5.6,8,6.8
	c2.3,1.3,1.4,0.6,6.8,4.6c4.6,3.4,14.9,10.7,22.7,15.9c7.8,5.3,19.3,13.2,21.6,14.8c2.3,1.6,3.6,0.9,5.7-1.1
	c2.1-2.1,10-8.9,15.9-12.5c5.9-3.6,18.4-12.7,23.9-15.9c5.5-3.2,12.5-9.1,12.5-9.1c1.7-1,3.3-2.1,5.7-3.4c2.4-1.3,2.6,4,2.3,10.3
	c-0.3,5.1-0.8,12.4-1.1,20.5c-0.3,6.3-0.3,19.8,0,23.9c0.3,4.1,0.4,8.7,0,17.1s-1.3,28.6-1.1,31.9c0.1,1.4,0.2,3.1,0.3,4.5
	c3.5-5.7,12-20,16.8-28.4c5.8-10.2,13.5-23.9,17-30.8c3.5-6.8,12-23.4,14.8-28.5c2.7-5,4.7-9.9,6.8-13.7c2.1-3.8,4.6-8.5,5.7-6.8
	c1,1.7,2.3,3.4,2.3,3.4s7.4,11.7,12.5,19.4c5.1,7.7,13.3,21.2,15.9,25.1c2.6,3.9,4,6.9,5.7,9.1c1.7,2.2,6.2,11.1,9.1,13.7
	c2.9,2.6,9.7,15,12.5,19.4c2.7,4.4,9.9,16.3,11.4,18.2c1.4,1.9,3.4,4.6,3.4,4.6H572.4z M330.7,524.8c-6.8,0-4.5-1.1-8-1.1
	c-1.9,0-1.9,1.7-5.7,1.1c-0.2,0-0.4-0.1-0.7-0.1c-0.3-8.7-1.2-26.2-0.9-31.6c0.4-7.4,0.9-21,1-32c0.1-10.7,0-10,0-10
	c-0.2-2-8,4.4-10,6c-2,1.6-10.5,8-15,11c-4.5,3-17.5,12.9-19,14c-2.2,1.6-6.6-2.6-11-6c-4.4-3.4-13-10.2-18-14c-5-3.8-11.5-9-13-9
	c-1.5,0-1.4,1.9-1,6c0.4,4.1,0.3,14.9,0,22c-0.2,7.1-0.1,30.9,0,36c0.1,3.1,0.1,5.9,0,8c-7.2,0.5-18.1,1-18.1-0.2
	c0-1.5,0.6-18.8,0-30.8c-0.6-12-2.1-34.7-2.3-39.9s-1.2-23.3-1.1-28.5c0.1-5.1-0.1-9.8,2.3-11.4c1.4-0.9,1.8-0.5,2.3,0
	c0.5,0.5,11.7,9,18.2,12.5c6.4,3.5,20.3,12.3,23.9,14.8c3.6,2.5,14.2,11.6,15.9,12.5c1.7,0.9,2.2,1.8,8-2.3
	c5.8-4.1,21.3-16.2,25-19.4c3.7-3.1,28.5-18.9,30.7-21.6c0,0,0.9,10.7,0,19.4c-0.9,8.6,0.1,11.1,0,13.7c-0.1,2.6-0.6,10.1,0,13.7
	c0.6,3.6,0.3,12.1,0,17.1c-0.3,4.9,0.8,22.1,1.1,33c0.4,10.9,0.5,12.6,0,13.7C334.7,522.4,334.1,524.8,330.7,524.8z M181.9,515.7
	c-8.1,5.5-11.9,6.3-14.8,6.8c-2.8,0.6-5.3,3.4-17,3.4c-7.8,0-15-0.4-28.4-6.8c-13.4-6.5-21.2-18.4-25-25.1
	c-3.8-6.6-5.8-15.6-5.7-22.8c0.2-12,2.7-20.9,9.1-31.9c6.4-11,20.4-19.4,20.4-19.4c5.3-3.2,12.9-5.5,18.2-6.8
	c5.3-1.3,4.7-1.1,13.6-1.1c8.9,0,12.5,0.8,20.4,4.6c8,3.8,15.7,9.3,25,20.5c6.7,8.1,9.1,20.1,9.1,28.5c0,8.4-0.6,16.7-4.5,26.2
	C198.3,501.2,190.8,509.6,181.9,515.7z M188.4,458c-2.2-8.7-8.1-15.5-16-22c-7.9-6.5-22-7-22-7c-14.8,0-22.8,6.1-29,12
	c-4.7,4.5-14.2,15.5-12,33c2.4,18.4,13.9,27.8,25,33c10.2,4.8,24,2.8,31,0c7-2.8,18-12,22-22S190.6,466.3,188.4,458z M150.4,508
	c-12.8,0-29.8-7.5-35-22c-4.9-13.4-3-19.1-3-22c0,0-0.4-8.5,7-17c7.4-8.5,11-11.9,19-14s15-2.8,25,1c8.6,3.2,15.9,9.2,19,15
	c2.5,4.6,6.4,13.6,6,20s-1.6,16.9-8,24C174.1,500.2,163.2,508,150.4,508z M169.4,464.4c-1.3-4.6-5.3-10.8-13.6-13.7
	c-8.3-2.8-14.4,0.8-18.2,3.4c0,0-7.6,4.2-8,13.7c-0.4,9.5,2.1,13.5,5.7,15.9c3.3,2.2,5.7,4.2,11.4,4.6c5.7,0.4,13.5-0.3,18.2-5.7
	C170.3,476.2,170.7,469,169.4,464.4z M61.8,487.8c3.9-0.5,7-0.5,11.4-3.4c1.6-1,3.3-2.2,4.8-3.6c1.4-0.7,2.5-0.8,3.4,0.8
	c1,1.9,2.7,3.5,6.5,8.6c0.9,1.2,1.7,2.4,2.4,3.5c-0.9,1.1-1.9,2.2-3,3.1c-7.2,6.2-19,12.6-31.7,11c-12.6-1.6-28.5-11.3-31.9-26.3
	c-3.1-13.9-0.5-19.4-0.1-22.2c0,0,0.7-8.5,9.1-16c8.4-7.5,12.4-10.4,20.6-11.4c8.2-1.1,15.2-0.8,24.7,4.2c4.1,2.2,7.7,5,10.6,8
	c-2.1,3.5-4.6,8.2-5.7,9.9c-1.4,2.3-3.2,6.3-4.8,6.5c-1.2-1.2-2.6-2.2-3.9-2.8c-4-2-11.1-3.7-19.1-0.9c-8.1,2.8-10.2,8.2-11.2,11.8
	c0,0-2.9,6.6,3.1,12.5C53,487.2,57.5,488.3,61.8,487.8z M90.6,440.9c-0.3,0.5-0.7,1.1-1.1,1.7c-2.1-2.3-4.5-4.5-7.1-6.6
	c-7.9-6.5-22-7-22-7c-14.7,0-22.8,6.1-29,12c-4.7,4.5-14.2,15.5-12,33c2.4,18.4,13.9,27.8,25,33c10.2,4.8,24,2.8,31,0
	c4.5-1.8,10.8-6.3,15.7-12c2.4,3.8,3.8,6.6,4.6,7.9c1.1,1.6,5.7,6.3,3.9,9.9c-1.7,1.4-3.4,2.7-5.2,4c-8.1,5.5-11.9,6.3-14.8,6.8
	c-2.8,0.6-5.3,3.4-17,3.4c-7.8,0-15-0.4-28.4-6.8c-13.4-6.5-21.2-18.4-25-25.1c-3.8-6.6-5.8-15.6-5.7-22.8c0.2-12,2.7-20.9,9.1-31.9
	c6.4-11,20.4-19.4,20.4-19.4c5.3-3.2,12.9-5.5,18.2-6.8c5.3-1.3,4.7-1.1,13.6-1.1c8.9,0,12.5,0.8,20.4,4.6c3.1,1.5,6.3,3.3,9.5,5.6
	c0.6,0.9,1.2,1.6,1.7,2.2c1.9,1.8,1.1,4.2-0.8,6.7C93.9,434.7,92.5,438,90.6,440.9z M231.4,483c0.4-8.1,0.1-20.1,0-24s2-1,4,0
	c2,1,6.5,4.8,12,9c5.5,4.2,21.1,15.9,23,17c1.9,1.1,5.7-2.2,8-4c2.2-1.8,10.5-8,16-12c5.5-4,14.9-11.2,17-13c2.1-1.8,1.8,0.5,2,2
	s-0.1,14.5,0,22c0.1,5.6,0.1,12,0,27c0,6.2-0.4,12.4-0.7,17.5c-1.7,0-3.5,0.1-4.8,0.2c-2.9,0.3-7.1-0.7-9.1,0c-2.8,1-5.1,0.6-5.7,0
	c-0.6-0.6-1.3-2.9-1.1-5.7c0.2-2.8,0.5-13.2,0-17.1c-0.5-3.9-0.3-8.8-3.4-6.8c-3.1,2-10.6,7.5-13.6,10.3c-3,2.8-4.3,4-5.7,2.3
	c-1.4-1.7-8.9-8.5-12.5-10.3c-2.6-2.1-6.1-3.4-5.7-1.1c0.4,2.3,1.2,15.9,1.1,22.8c-0.1,4.6,0.1,5.7-1.1,5.7c-1.2,0-11.7-0.5-18.2,0
	c-0.2,0-0.5,0-0.7,0.1c0.2-1.8,0.3-4.8,0.2-9.8C232.1,504.8,231.1,491.2,231.4,483z M360.4,458c-0.1-2.6,2.4-0.1,4,1
	c1.6,1.1,10.5,7.6,15,11c4.3,3.3,17.2,13.4,19,15c1.8,1.6,3.1-0.1,4-1c0.9-0.9,8.4-6.2,14-10c5.6-3.8,22.7-16.7,24-18
	c2.2-2.2,2.4-0.5,2,5c-0.3,3.8-0.1,35.1,0,41c0.1,4.3,0,15.9,0,21.6c-0.2,0-0.4,0-0.5,0c-3.1-0.3-6.8-0.7-10.2,0c-3.4,0.7-6.1,0-8,0
	c-1.8,0-0.9-3.1-1.1-8c-0.3-4.8,0-14.8,0-17.1s0.4-3.8-1.1-4.6c-1.6-0.7-3.1,2.6-5.7,4.6c-2.6,2-6.2,3.5-9.1,6.8
	c-3.5,4.1-5.7,2.3-5.7,2.3s-1.7-1.7-4.5-3.4c-2.8-1.7-9.1-8.8-11.4-9.1c-2.3-0.3-2.1,3.7-2.3,10.3c-0.1,6.5-0.1,17.1,0,18.2
	c0.1,1.1-4.4,1.6-8,1.1c-3.5-0.4-4.3-0.3-6.8,0c-1.4,0.2-4.2,0.1-7,0c-0.3-12.8-0.8-34.3-0.7-37.8
	C360.8,474.7,360.6,460.7,360.4,458z M510.4,482c2.8-4.6,13.1-22.1,14-24s2.1-0.4,5,4c1.6,2.4,12.5,19.1,15,23
	c2.5,3.9,12.8,20.4,16,25c2.4,3.4,7.2,10.9,9.6,14.7h-21.3c0,0-1.7,0.6-3.4-2.3c-1.7-2.8-2.7-6.5-5.7-5.7c-2.9,0.8-5.9,0.3-6.8,0
	c-0.9-0.3-4.4,0.2-6.8,0c-2.4-0.2-4.4-0.7-6.8,0c-2.4,0.7-3.2,1.1-4.5,1.1c-1.3,0-3.5,1.8-4.5,3.4c-1,1.6-3,4-6.8,3.4
	c-4.3-0.6-6.7-0.3-8,0c-1.2,0.3-5.2,0.5-8,0c-0.8-0.1-1.5-0.2-2.1-0.1c3.3-5.4,12-20.2,14.1-23.6C501.8,497.3,507.7,486.7,510.4,482
	z M523.8,506.5c2.7-0.4,3.4-0.1,5.7,0c2.3,0.1,5.1-0.3,4.5-2.3c-0.6-2-1.8-5.7-3.4-6.8c-1.6-1.1-3.1-6.3-5.7-1.1c0,0-2.3,4-3.4,5.7
	C520.3,503.7,521.1,507,523.8,506.5z"/>
</svg>
